<svg width="129" height="22" viewBox="0 0 129 22" fill="none" xmlns="http://www.w3.org/2000/svg">
<path d="M0.78125 3.78906H5.67969V17H9.02344V3.78906H13.9219V1H0.78125V3.78906ZM16.0234 17H19.3516V5H16.0234V17ZM17.6953 3.57812C18.6641 3.57812 19.5 2.84375 19.5 1.89062C19.5 0.945312 18.6641 0.210937 17.6953 0.210937C16.7344 0.210937 15.8984 0.945312 15.8984 1.89062C15.8984 2.84375 16.7344 3.57812 17.6953 3.57812ZM27.4785 17.2344C30.6738 17.2344 32.6816 15.3594 32.8301 12.6016H29.6973C29.502 13.8828 28.6582 14.6016 27.5176 14.6016C25.9629 14.6016 24.9551 13.2969 24.9551 11C24.9551 8.73437 25.9707 7.4375 27.5176 7.4375C28.7363 7.4375 29.5098 8.24219 29.6973 9.4375H32.8301C32.6973 6.66406 30.5957 4.84375 27.4629 4.84375C23.8223 4.84375 21.5723 7.36719 21.5723 11.0469C21.5723 14.6953 23.7832 17.2344 27.4785 17.2344ZM34.9727 17H38.3008V13.1875L39.1992 12.1641L42.4727 17H46.3711L41.6914 10.1953L46.1445 5H42.3242L38.4805 9.55469H38.3008V1H34.9727V17ZM52.7832 17.2344C55.7598 17.2344 57.752 15.7891 58.2207 13.5625L55.1504 13.3594C54.8145 14.2734 53.9473 14.75 52.8457 14.75C51.1816 14.75 50.127 13.6484 50.127 11.8594V11.8516H58.2988V10.9375C58.2988 6.85938 55.8301 4.84375 52.6582 4.84375C49.127 4.84375 46.8379 7.35156 46.8379 11.0547C46.8379 14.8594 49.0957 17.2344 52.7832 17.2344ZM50.127 9.78906C50.1895 8.42187 51.2363 7.32812 52.7129 7.32812C54.1504 7.32812 55.1504 8.35937 55.166 9.78906H50.127ZM66.9004 5H64.6426V2.125H61.3145V5H59.6738V7.5H61.3145V13.7266C61.2988 16.0703 62.9004 17.2344 65.3145 17.1406C66.1738 17.1016 66.7832 16.9297 67.1191 16.8281L66.5957 14.3437C66.4316 14.3828 66.0801 14.4531 65.7676 14.4531C65.1035 14.4531 64.6191 14.2031 64.6426 13.2812V7.5H66.9004V5Z" fill="#393845"/>
<path d="M71.9316 17L73.1191 13.3516H78.8926L80.0801 17H83.7051L78.1895 1H73.8301L68.3066 17H71.9316ZM73.9785 10.7109L75.9473 4.65625H76.0723L78.041 10.7109H73.9785ZM95.2734 8.42187C94.9766 6.21094 93.1953 4.84375 90.1641 4.84375C87.0938 4.84375 85.0703 6.26562 85.0781 8.57812C85.0703 10.375 86.2031 11.5391 88.5469 12.0078L90.625 12.4219C91.6719 12.6328 92.1484 13.0156 92.1641 13.6172C92.1484 14.3281 91.375 14.8359 90.2109 14.8359C89.0234 14.8359 88.2344 14.3281 88.0312 13.3516L84.7578 13.5234C85.0703 15.8203 87.0234 17.2344 90.2031 17.2344C93.3125 17.2344 95.5391 15.6484 95.5469 13.2812C95.5391 11.5469 94.4063 10.5078 92.0781 10.0312L89.9063 9.59375C88.7891 9.35156 88.375 8.96875 88.3828 8.39062C88.375 7.67187 89.1875 7.20312 90.2188 7.20312C91.375 7.20312 92.0625 7.83594 92.2266 8.60937L95.2734 8.42187ZM97.6426 17H100.971V5H97.6426V17ZM99.3145 3.57812C100.283 3.57812 101.119 2.84375 101.119 1.89062C101.119 0.945312 100.283 0.210937 99.3145 0.210937C98.3535 0.210937 97.5176 0.945312 97.5176 1.89062C97.5176 2.84375 98.3535 3.57812 99.3145 3.57812ZM107.059 17.2266C108.832 17.2266 109.98 16.4531 110.566 15.3359H110.66V17H113.816V8.90625C113.816 6.04687 111.371 4.84375 108.777 4.84375C105.824 4.84375 103.957 6.21875 103.496 8.40625L106.574 8.65625C106.801 7.85937 107.512 7.27344 108.707 7.27344C109.855 7.27344 110.48 7.83594 110.488 8.84375C110.496 9.63281 109.668 9.75 107.582 9.95312C105.207 10.1719 103.074 10.9687 103.074 13.6484C103.074 16.0234 104.77 17.2266 107.059 17.2266ZM108.012 14.9297C106.988 14.9297 106.254 14.4531 106.254 13.5391C106.254 12.6016 107.027 12.1406 108.199 11.9766C108.926 11.875 110.113 11.7031 110.512 11.4375V12.7109C110.512 13.9687 109.473 14.9297 108.012 14.9297ZM123.234 17.1953C125.977 17.1953 128.109 15.0312 128.102 11.0156C128.109 6.89062 125.883 4.84375 123.242 4.84375C121.234 4.84375 120.273 6.03906 119.828 7.01562H119.68V5H116.398V21.5H119.727V15.0781H119.828C120.281 16.0781 121.289 17.1953 123.234 17.1953ZM122.18 14.5469C120.578 14.5469 119.664 13.1484 119.656 11C119.664 8.86719 120.563 7.49219 122.18 7.49219C123.828 7.49219 124.703 8.91406 124.703 11C124.703 13.1016 123.812 14.5469 122.18 14.5469Z" fill="#607CFE"/>
</svg>
